<svg width="24" height="25" viewBox="0 0 24 25" fill="none" xmlns="http://www.w3.org/2000/svg">
<g clip-path="url(#clip0_126_5486)">
<path fill-rule="evenodd" clip-rule="evenodd" d="M0.156959 3.67196C0.268144 3.5621 0.418152 3.50049 0.574459 3.50049C0.730766 3.50049 0.880774 3.5621 0.991959 3.67196L9.82096 12.1C9.87733 12.1502 9.92244 12.2119 9.95332 12.2808C9.98421 12.3497 10.0002 12.4244 10.0002 12.5C10.0002 12.5755 9.98421 12.6502 9.95332 12.7191C9.92244 12.7881 9.87733 12.8497 9.82096 12.9L1.02096 21.328C0.909504 21.4372 0.759997 21.4988 0.603959 21.5C0.447836 21.4993 0.298177 21.4375 0.186959 21.328C0.130588 21.2777 0.085481 21.2161 0.0545959 21.1471C0.0237107 21.0782 0.00774466 21.0035 0.00774466 20.928C0.00774466 20.8524 0.0237107 20.7777 0.0545959 20.7088C0.085481 20.6399 0.130588 20.5782 0.186959 20.528L8.53796 12.499L0.154959 4.46996C0.0550187 4.3608 -0.000246539 4.21807 0.000123921 4.07007C0.00049438 3.92207 0.0564735 3.77962 0.156959 3.67096V3.67196ZM14.157 3.67196C14.2681 3.5621 14.4182 3.50049 14.5745 3.50049C14.7308 3.50049 14.8808 3.5621 14.992 3.67196L23.821 12.1C23.8773 12.1502 23.9224 12.2119 23.9533 12.2808C23.9842 12.3497 24.0002 12.4244 24.0002 12.5C24.0002 12.5755 23.9842 12.6502 23.9533 12.7191C23.9224 12.7881 23.8773 12.8497 23.821 12.9L15.021 21.328C14.9095 21.4372 14.76 21.4988 14.604 21.5C14.4478 21.4993 14.2982 21.4375 14.187 21.328C14.1306 21.2777 14.0855 21.2161 14.0546 21.1471C14.0237 21.0782 14.0077 21.0035 14.0077 20.928C14.0077 20.8524 14.0237 20.7777 14.0546 20.7088C14.0855 20.6399 14.1306 20.5782 14.187 20.528L22.538 12.499L14.155 4.46996C14.055 4.3608 13.9998 4.21807 14.0001 4.07007C14.0005 3.92207 14.0565 3.77962 14.157 3.67096V3.67196Z" fill="black"/>
</g>
<defs>
<clipPath id="clip0_126_5486">
<rect width="24" height="24" fill="white" transform="translate(0 0.5)"/>
</clipPath>
</defs>
</svg>
