<svg width="293" height="18" viewBox="0 0 293 18" fill="none" xmlns="http://www.w3.org/2000/svg">
<line x1="0.5" y1="8.75" x2="127" y2="8.75" stroke="#979797" stroke-width="0.5"/>
<path d="M140.928 10.388C140.928 9.94933 140.984 9.562 141.096 9.226C141.218 8.88067 141.381 8.59133 141.586 8.358C141.792 8.12467 142.03 7.94733 142.3 7.826C142.58 7.70467 142.874 7.644 143.182 7.644C143.49 7.644 143.78 7.70467 144.05 7.826C144.33 7.94733 144.573 8.12467 144.778 8.358C144.984 8.59133 145.142 8.88067 145.254 9.226C145.376 9.562 145.436 9.94933 145.436 10.388C145.436 10.8267 145.376 11.2187 145.254 11.564C145.142 11.9 144.984 12.1847 144.778 12.418C144.573 12.642 144.33 12.8147 144.05 12.936C143.78 13.0573 143.49 13.118 143.182 13.118C142.874 13.118 142.58 13.0573 142.3 12.936C142.03 12.8147 141.792 12.642 141.586 12.418C141.381 12.1847 141.218 11.9 141.096 11.564C140.984 11.2187 140.928 10.8267 140.928 10.388ZM139.668 10.388C139.668 10.92 139.743 11.4147 139.892 11.872C140.042 12.3293 140.266 12.7307 140.564 13.076C140.863 13.412 141.232 13.678 141.67 13.874C142.109 14.0607 142.613 14.154 143.182 14.154C143.761 14.154 144.265 14.0607 144.694 13.874C145.133 13.678 145.502 13.412 145.8 13.076C146.099 12.7307 146.323 12.3293 146.472 11.872C146.622 11.4147 146.696 10.92 146.696 10.388C146.696 9.856 146.622 9.36133 146.472 8.904C146.323 8.43733 146.099 8.036 145.8 7.7C145.502 7.35467 145.133 7.084 144.694 6.888C144.265 6.692 143.761 6.594 143.182 6.594C142.613 6.594 142.109 6.692 141.67 6.888C141.232 7.084 140.863 7.35467 140.564 7.7C140.266 8.036 140.042 8.43733 139.892 8.904C139.743 9.36133 139.668 9.856 139.668 10.388ZM150.027 6.762V14H151.217V10.78C151.217 10.3133 151.264 9.90267 151.357 9.548C151.451 9.184 151.6 8.876 151.805 8.624C152.011 8.372 152.281 8.18067 152.617 8.05C152.953 7.91933 153.359 7.854 153.835 7.854V6.594C153.191 6.57533 152.659 6.706 152.239 6.986C151.819 7.266 151.465 7.7 151.175 8.288H151.147V6.762H150.027Z" fill="#979797"/>
<line x1="166" y1="8.75" x2="292.5" y2="8.75" stroke="#979797" stroke-width="0.5"/>
</svg>
