<svg width="47" height="35" viewBox="0 0 47 35" fill="none" xmlns="http://www.w3.org/2000/svg">
<mask id="mask0_7072_648" style="mask-type:alpha" maskUnits="userSpaceOnUse" x="0" y="8" width="43" height="27">
<path d="M0.789978 8.16113H42.509V34.4435H0.789978V8.16113Z" fill="white"/>
</mask>
<g mask="url(#mask0_7072_648)">
<path fill-rule="evenodd" clip-rule="evenodd" d="M0.825383 25.2901C2.18848 27.3412 3.86668 29.305 5.8352 30.8339C6.82064 31.6016 7.88988 32.2619 9.03995 32.734C10.1918 33.1842 11.431 33.4604 12.6548 33.6864C15.1149 34.1201 17.6481 34.1526 20.0993 33.6964C22.5553 33.2627 24.9032 32.3493 27.0965 31.1685C29.2846 29.963 31.3334 28.5055 33.1237 26.7647C34.9281 25.0387 36.4683 23.0501 37.8715 20.976C39.234 18.877 40.6231 16.751 41.5784 14.4597C41.7979 13.8837 42.005 13.2942 42.0699 12.7012C42.0989 12.4062 42.0953 12.1123 42.0227 11.8444C41.949 11.5706 41.7914 11.3753 41.5684 11.1233C41.2285 10.6719 40.6437 10.3627 40.1303 10.0228C39.5993 9.69471 39.0558 9.37961 38.5088 9.0763L38.5064 9.07571L38.4811 9.05978C37.8809 8.66442 37.0566 8.51808 36.2907 8.53932C35.9083 8.55585 35.4929 8.58476 35.15 8.69865C34.7892 8.82822 34.4512 9.01425 34.1486 9.24979C32.9059 10.2087 31.937 11.5364 31.092 12.8759L31.0979 12.8641L26.7608 21.6481C25.0519 24.4758 22.5004 26.77 19.4874 28.0942C17.9759 28.7476 16.3629 29.1349 14.7195 29.2389C13.0825 29.317 11.4419 29.2135 9.82772 28.9303C6.62297 28.3503 3.46129 27.1353 0.825383 25.2913V25.2901ZM0.789978 25.2505C3.53355 27.044 6.61705 28.2532 9.84837 28.8029C11.4534 29.0713 13.0862 29.1616 14.7101 29.0702C16.3304 28.9559 17.9188 28.562 19.4048 27.9059C22.3611 26.5865 24.869 24.2757 26.5153 21.52L30.7981 12.7171L30.8046 12.7053C31.6662 11.3257 32.6209 9.98621 33.9321 8.95888C34.2647 8.69692 34.6373 8.49011 35.0355 8.34637C35.461 8.20711 35.8605 8.18586 36.2806 8.16285C37.1121 8.14515 37.9618 8.25903 38.7212 8.74999L38.6947 8.73287C39.2511 9.03554 39.8003 9.35152 40.3416 9.68055C40.8685 10.0311 41.4486 10.3102 41.8882 10.8607C42.0835 11.0737 42.3378 11.3829 42.4252 11.7264C42.5202 12.0686 42.5214 12.4132 42.4919 12.7437C42.421 13.4063 42.2086 14.0194 41.9862 14.6184C41.0143 16.9911 39.6406 19.119 38.2822 21.2492C36.8837 23.3546 35.3335 25.3874 33.4901 27.1435C31.6662 28.9179 29.5749 30.4067 27.3515 31.6329C22.9152 34.1313 17.5767 35.0489 12.5899 34.0405C11.3442 33.7914 10.1151 33.5011 8.92312 33.0178C7.74767 32.5163 6.66545 31.8259 5.67765 31.0316C3.71802 29.4104 2.06294 27.453 0.789978 25.2511" fill="#231F20"/>
</g>
<mask id="mask1_7072_648" style="mask-type:alpha" maskUnits="userSpaceOnUse" x="38" y="0" width="9" height="9">
<path d="M38.2852 0H46.9275V8.86899H38.2852V0Z" fill="white"/>
</mask>
<g mask="url(#mask1_7072_648)">
<path fill-rule="evenodd" clip-rule="evenodd" d="M38.291 8.82598C39.0505 7.84349 39.8099 6.87693 40.4614 5.84428C41.1364 4.84173 41.6622 3.73591 42.2889 2.64838C42.5969 2.10668 42.9085 1.56616 43.2814 1.05397C43.4679 0.799051 43.6649 0.547674 43.9175 0.329933C44.1618 0.0938986 44.5453 -0.0229383 44.8669 0.0024354C45.5396 0.020138 46.1521 0.427297 46.4779 0.976077C46.803 1.53194 46.9157 2.16923 46.9275 2.78764C46.9278 2.79115 46.9273 2.79466 46.9261 2.79798C46.925 2.8013 46.9231 2.80435 46.9208 2.80694C46.9184 2.80953 46.9155 2.81162 46.9123 2.81307C46.9091 2.81452 46.9057 2.8153 46.9021 2.81537C46.8954 2.81539 46.8889 2.81283 46.884 2.80823C46.879 2.80363 46.876 2.79732 46.8756 2.79059C46.8284 2.17867 46.6779 1.5638 46.3445 1.06341C46.0111 0.568918 45.4429 0.249091 44.8646 0.267974C44.2603 0.224308 43.9098 0.760105 43.5634 1.25165C43.2289 1.75617 42.9439 2.302 42.663 2.84901C42.1042 3.93063 41.6675 5.12674 40.8998 6.14523C40.148 7.15073 39.3107 8.08897 38.3282 8.86434C38.3254 8.8664 38.3222 8.86788 38.3188 8.8687C38.3154 8.86952 38.3119 8.86966 38.3084 8.86911C38.3049 8.86857 38.3016 8.86734 38.2987 8.86551C38.2957 8.86368 38.2931 8.86127 38.291 8.85844C38.2828 8.849 38.284 8.83543 38.291 8.82598" fill="#231F20"/>
</g>
<path fill-rule="evenodd" clip-rule="evenodd" d="M41.2827 10.6105C41.2922 9.68113 41.4291 8.77181 41.5654 7.86249C41.7159 6.95552 41.969 6.06863 42.2098 5.18173C42.4448 4.29193 42.7095 3.41024 43.0034 2.53814C43.1568 2.10384 43.3221 1.67131 43.5174 1.25176C43.731 0.85876 43.8968 0.362498 44.3648 0.16836C44.3789 0.16423 44.3937 0.16954 44.399 0.183112C44.4031 0.194914 44.399 0.209666 44.386 0.214977L44.3742 0.221468C43.9847 0.415016 43.8349 0.914818 43.6637 1.31431C43.5044 1.73917 43.3746 2.17701 43.2566 2.61781C43.0158 3.49801 42.8045 4.38599 42.6228 5.28027C42.4381 6.17602 42.3036 7.08062 42.0858 7.9687C41.8551 8.85442 41.645 9.74486 41.3347 10.6188C41.3336 10.6222 41.3319 10.6253 41.3295 10.6281C41.3272 10.6308 41.3244 10.633 41.3212 10.6346C41.318 10.6362 41.3145 10.6371 41.3109 10.6374C41.3074 10.6376 41.3038 10.6371 41.3004 10.6359C41.2898 10.6329 41.2827 10.6211 41.2827 10.6105V10.6105ZM30.0995 19.6683C30.7379 17.8638 31.5027 16.1024 32.4279 14.413C32.897 13.5727 33.3803 12.7254 34.0359 11.9919C34.6986 11.308 35.5188 10.5657 36.5373 10.5273C36.552 10.5261 36.5638 10.5379 36.565 10.5527C36.565 10.5645 36.555 10.5751 36.5444 10.5792C35.6492 10.9109 35.0219 11.616 34.4395 12.3365C33.8713 13.0741 33.3066 13.8288 32.795 14.6284C31.8036 16.2441 30.9268 17.9447 30.1484 19.6872C30.1473 19.6905 30.1454 19.6935 30.143 19.6961C30.1407 19.6987 30.1378 19.7008 30.1346 19.7022C30.1314 19.7036 30.1279 19.7044 30.1244 19.7045C30.1209 19.7045 30.1175 19.7039 30.1142 19.7026C30.1079 19.6997 30.103 19.6946 30.1002 19.6883C30.0975 19.682 30.0972 19.6748 30.0995 19.6683" fill="#231F20"/>
</svg>
