<svg width="180" height="120" viewBox="0 0 180 120" fill="none" xmlns="http://www.w3.org/2000/svg">
<g clip-path="url(#clip0_126_5521)">
<path fill-rule="evenodd" clip-rule="evenodd" d="M30.147 24.3262L15.033 13.8402C13.743 12.9462 12 13.9202 12 15.5262V36.4702C12 38.1032 13.744 39.0522 15.033 38.1562L30.147 27.6702C31.284 26.9062 31.284 25.1162 30.147 24.3262Z" fill="black"/>
</g>
<path d="M79.5633 19.754L79.9133 21H80.7533V15.736H76.3713V16.856H79.5633C79.5819 17.3133 79.5213 17.7427 79.3813 18.144C79.2413 18.536 79.0313 18.8813 78.7513 19.18C78.4806 19.4693 78.1446 19.698 77.7433 19.866C77.3419 20.034 76.8799 20.118 76.3573 20.118C75.7973 20.118 75.3026 20.0107 74.8733 19.796C74.4533 19.572 74.0986 19.278 73.8093 18.914C73.5199 18.5407 73.3006 18.116 73.1513 17.64C73.0019 17.1547 72.9273 16.6507 72.9273 16.128C72.9273 15.596 72.9926 15.078 73.1233 14.574C73.2539 14.0607 73.4546 13.608 73.7253 13.216C74.0053 12.8147 74.3599 12.4927 74.7893 12.25C75.2279 12.0073 75.7506 11.886 76.3573 11.886C76.7306 11.886 77.0806 11.9327 77.4073 12.026C77.7433 12.11 78.0419 12.2407 78.3033 12.418C78.5646 12.5953 78.7839 12.824 78.9613 13.104C79.1386 13.3747 79.2599 13.7013 79.3253 14.084H80.6553C80.5619 13.496 80.3846 12.9967 80.1233 12.586C79.8713 12.166 79.5539 11.8207 79.1713 11.55C78.7979 11.2793 78.3686 11.0833 77.8833 10.962C77.4073 10.8313 76.8986 10.766 76.3573 10.766C75.5639 10.766 74.8686 10.9153 74.2713 11.214C73.6833 11.5033 73.1886 11.8953 72.7873 12.39C72.3953 12.8847 72.0966 13.4633 71.8913 14.126C71.6953 14.7793 71.5973 15.47 71.5973 16.198C71.5973 16.8513 71.7046 17.4813 71.9193 18.088C72.1339 18.6947 72.4466 19.2313 72.8573 19.698C73.2679 20.1647 73.7673 20.538 74.3553 20.818C74.9433 21.0887 75.6106 21.224 76.3573 21.224C76.9453 21.224 77.5286 21.112 78.1073 20.888C78.6859 20.6547 79.1713 20.2767 79.5633 19.754ZM88.8303 16.688H84.6723C84.691 16.408 84.7517 16.1467 84.8543 15.904C84.957 15.652 85.097 15.4327 85.2743 15.246C85.4517 15.0593 85.6617 14.9147 85.9043 14.812C86.1563 14.7 86.4363 14.644 86.7443 14.644C87.043 14.644 87.3137 14.7 87.5563 14.812C87.8083 14.9147 88.023 15.0593 88.2003 15.246C88.387 15.4233 88.5317 15.638 88.6343 15.89C88.7463 16.142 88.8117 16.408 88.8303 16.688ZM89.9783 18.704H88.8023C88.6997 19.18 88.485 19.5347 88.1583 19.768C87.841 20.0013 87.4303 20.118 86.9263 20.118C86.5343 20.118 86.1937 20.0527 85.9043 19.922C85.615 19.7913 85.377 19.6187 85.1903 19.404C85.0037 19.18 84.8683 18.928 84.7843 18.648C84.7003 18.3587 84.663 18.0553 84.6723 17.738H90.0903C90.109 17.2993 90.067 16.8373 89.9643 16.352C89.871 15.8667 89.6937 15.4187 89.4323 15.008C89.1803 14.5973 88.8397 14.2613 88.4103 14C87.9903 13.7293 87.4583 13.594 86.8143 13.594C86.3197 13.594 85.8623 13.6873 85.4423 13.874C85.0317 14.0607 84.6723 14.322 84.3643 14.658C84.0657 14.994 83.8323 15.3907 83.6643 15.848C83.4963 16.3053 83.4123 16.8093 83.4123 17.36C83.431 17.9107 83.5103 18.4193 83.6503 18.886C83.7997 19.3527 84.019 19.754 84.3083 20.09C84.5977 20.426 84.9523 20.6873 85.3723 20.874C85.8017 21.0607 86.3057 21.154 86.8843 21.154C87.7057 21.154 88.387 20.9487 88.9283 20.538C89.4697 20.1273 89.8197 19.516 89.9783 18.704ZM94.2658 13.762V11.592H93.0758V13.762H91.8438V14.812H93.0758V19.418C93.0758 19.754 93.1085 20.0247 93.1738 20.23C93.2392 20.4353 93.3372 20.594 93.4678 20.706C93.6078 20.818 93.7852 20.8973 93.9998 20.944C94.2238 20.9813 94.4898 21 94.7978 21H95.7079V19.95H95.1618C94.9752 19.95 94.8212 19.9453 94.6998 19.936C94.5878 19.9173 94.4992 19.8847 94.4338 19.838C94.3685 19.7913 94.3218 19.726 94.2938 19.642C94.2752 19.558 94.2658 19.446 94.2658 19.306V14.812H95.7079V13.762H94.2658ZM104.766 12.46V11.004H103.576V12.46H104.766ZM103.576 13.762V21H104.766V13.762H103.576ZM109.552 13.762V11.592H108.362V13.762H107.13V14.812H108.362V19.418C108.362 19.754 108.395 20.0247 108.46 20.23C108.525 20.4353 108.623 20.594 108.754 20.706C108.894 20.818 109.071 20.8973 109.286 20.944C109.51 20.9813 109.776 21 110.084 21H110.994V19.95H110.448C110.261 19.95 110.107 19.9453 109.986 19.936C109.874 19.9173 109.785 19.8847 109.72 19.838C109.655 19.7913 109.608 19.726 109.58 19.642C109.561 19.558 109.552 19.446 109.552 19.306V14.812H110.994V13.762H109.552ZM119.66 17.388C119.66 16.9493 119.716 16.562 119.828 16.226C119.95 15.8807 120.113 15.5913 120.318 15.358C120.524 15.1247 120.762 14.9473 121.032 14.826C121.312 14.7047 121.606 14.644 121.914 14.644C122.222 14.644 122.512 14.7047 122.782 14.826C123.062 14.9473 123.305 15.1247 123.51 15.358C123.716 15.5913 123.874 15.8807 123.986 16.226C124.108 16.562 124.168 16.9493 124.168 17.388C124.168 17.8267 124.108 18.2187 123.986 18.564C123.874 18.9 123.716 19.1847 123.51 19.418C123.305 19.642 123.062 19.8147 122.782 19.936C122.512 20.0573 122.222 20.118 121.914 20.118C121.606 20.118 121.312 20.0573 121.032 19.936C120.762 19.8147 120.524 19.642 120.318 19.418C120.113 19.1847 119.95 18.9 119.828 18.564C119.716 18.2187 119.66 17.8267 119.66 17.388ZM118.4 17.388C118.4 17.92 118.475 18.4147 118.624 18.872C118.774 19.3293 118.998 19.7307 119.296 20.076C119.595 20.412 119.964 20.678 120.402 20.874C120.841 21.0607 121.345 21.154 121.914 21.154C122.493 21.154 122.997 21.0607 123.426 20.874C123.865 20.678 124.234 20.412 124.532 20.076C124.831 19.7307 125.055 19.3293 125.204 18.872C125.354 18.4147 125.428 17.92 125.428 17.388C125.428 16.856 125.354 16.3613 125.204 15.904C125.055 15.4373 124.831 15.036 124.532 14.7C124.234 14.3547 123.865 14.084 123.426 13.888C122.997 13.692 122.493 13.594 121.914 13.594C121.345 13.594 120.841 13.692 120.402 13.888C119.964 14.084 119.595 14.3547 119.296 14.7C118.998 15.036 118.774 15.4373 118.624 15.904C118.475 16.3613 118.4 16.856 118.4 17.388ZM128.121 13.762V21H129.311V16.912C129.311 16.5853 129.353 16.2867 129.437 16.016C129.531 15.736 129.666 15.4933 129.843 15.288C130.021 15.0827 130.24 14.924 130.501 14.812C130.772 14.7 131.089 14.644 131.453 14.644C131.911 14.644 132.27 14.7747 132.531 15.036C132.793 15.2973 132.923 15.652 132.923 16.1V21H134.113V16.24C134.113 15.848 134.071 15.4933 133.987 15.176C133.913 14.8493 133.777 14.5693 133.581 14.336C133.385 14.1027 133.129 13.9207 132.811 13.79C132.494 13.6593 132.097 13.594 131.621 13.594C130.548 13.594 129.764 14.0327 129.269 14.91H129.241V13.762H128.121Z" fill="black"/>
<path d="M62.9358 39.576L63.3357 41H64.2957V34.984H59.2877V36.264H62.9358C62.9571 36.7867 62.8877 37.2773 62.7277 37.736C62.5677 38.184 62.3277 38.5787 62.0077 38.92C61.6984 39.2507 61.3144 39.512 60.8557 39.704C60.3971 39.896 59.8691 39.992 59.2717 39.992C58.6317 39.992 58.0664 39.8693 57.5757 39.624C57.0957 39.368 56.6904 39.032 56.3597 38.616C56.0291 38.1893 55.7784 37.704 55.6077 37.16C55.4371 36.6053 55.3517 36.0293 55.3517 35.432C55.3517 34.824 55.4264 34.232 55.5757 33.656C55.7251 33.0693 55.9544 32.552 56.2637 32.104C56.5837 31.6453 56.9891 31.2773 57.4797 31C57.9811 30.7227 58.5784 30.584 59.2717 30.584C59.6984 30.584 60.0984 30.6373 60.4717 30.744C60.8557 30.84 61.1971 30.9893 61.4957 31.192C61.7944 31.3947 62.0451 31.656 62.2477 31.976C62.4504 32.2853 62.5891 32.6587 62.6637 33.096H64.1838C64.0771 32.424 63.8744 31.8533 63.5757 31.384C63.2877 30.904 62.9251 30.5093 62.4878 30.2C62.0611 29.8907 61.5704 29.6667 61.0157 29.528C60.4717 29.3787 59.8904 29.304 59.2717 29.304C58.3651 29.304 57.5704 29.4747 56.8877 29.816C56.2157 30.1467 55.6504 30.5947 55.1917 31.16C54.7437 31.7253 54.4024 32.3867 54.1677 33.144C53.9437 33.8907 53.8317 34.68 53.8317 35.512C53.8317 36.2587 53.9544 36.9787 54.1997 37.672C54.4451 38.3653 54.8024 38.9787 55.2717 39.512C55.7411 40.0453 56.3117 40.472 56.9837 40.792C57.6557 41.1013 58.4184 41.256 59.2717 41.256C59.9437 41.256 60.6104 41.128 61.2717 40.872C61.9331 40.6053 62.4878 40.1733 62.9358 39.576ZM68.5904 36.872C68.5904 36.3707 68.6544 35.928 68.7824 35.544C68.921 35.1493 69.1077 34.8187 69.3424 34.552C69.577 34.2853 69.849 34.0827 70.1584 33.944C70.4784 33.8053 70.8144 33.736 71.1664 33.736C71.5184 33.736 71.849 33.8053 72.1584 33.944C72.4784 34.0827 72.7557 34.2853 72.9904 34.552C73.225 34.8187 73.4064 35.1493 73.5344 35.544C73.673 35.928 73.7424 36.3707 73.7424 36.872C73.7424 37.3733 73.673 37.8213 73.5344 38.216C73.4064 38.6 73.225 38.9253 72.9904 39.192C72.7557 39.448 72.4784 39.6453 72.1584 39.784C71.849 39.9227 71.5184 39.992 71.1664 39.992C70.8144 39.992 70.4784 39.9227 70.1584 39.784C69.849 39.6453 69.577 39.448 69.3424 39.192C69.1077 38.9253 68.921 38.6 68.7824 38.216C68.6544 37.8213 68.5904 37.3733 68.5904 36.872ZM67.1504 36.872C67.1504 37.48 67.2357 38.0453 67.4064 38.568C67.577 39.0907 67.833 39.5493 68.1744 39.944C68.5157 40.328 68.937 40.632 69.4384 40.856C69.9397 41.0693 70.5157 41.176 71.1664 41.176C71.8277 41.176 72.4037 41.0693 72.8944 40.856C73.3957 40.632 73.817 40.328 74.1584 39.944C74.4997 39.5493 74.7557 39.0907 74.9264 38.568C75.097 38.0453 75.1824 37.48 75.1824 36.872C75.1824 36.264 75.097 35.6987 74.9264 35.176C74.7557 34.6427 74.4997 34.184 74.1584 33.8C73.817 33.4053 73.3957 33.096 72.8944 32.872C72.4037 32.648 71.8277 32.536 71.1664 32.536C70.5157 32.536 69.9397 32.648 69.4384 32.872C68.937 33.096 68.5157 33.4053 68.1744 33.8C67.833 34.184 67.577 34.6427 67.4064 35.176C67.2357 35.6987 67.1504 36.264 67.1504 36.872ZM79.0679 36.872C79.0679 36.3707 79.1319 35.928 79.2599 35.544C79.3985 35.1493 79.5852 34.8187 79.8199 34.552C80.0545 34.2853 80.3265 34.0827 80.6359 33.944C80.9559 33.8053 81.2919 33.736 81.6439 33.736C81.9959 33.736 82.3265 33.8053 82.6359 33.944C82.9559 34.0827 83.2332 34.2853 83.4679 34.552C83.7025 34.8187 83.8839 35.1493 84.0119 35.544C84.1505 35.928 84.2199 36.3707 84.2199 36.872C84.2199 37.3733 84.1505 37.8213 84.0119 38.216C83.8839 38.6 83.7025 38.9253 83.4679 39.192C83.2332 39.448 82.9559 39.6453 82.6359 39.784C82.3265 39.9227 81.9959 39.992 81.6439 39.992C81.2919 39.992 80.9559 39.9227 80.6359 39.784C80.3265 39.6453 80.0545 39.448 79.8199 39.192C79.5852 38.9253 79.3985 38.6 79.2599 38.216C79.1319 37.8213 79.0679 37.3733 79.0679 36.872ZM77.6279 36.872C77.6279 37.48 77.7132 38.0453 77.8839 38.568C78.0545 39.0907 78.3105 39.5493 78.6519 39.944C78.9932 40.328 79.4145 40.632 79.9159 40.856C80.4172 41.0693 80.9932 41.176 81.6439 41.176C82.3052 41.176 82.8812 41.0693 83.3719 40.856C83.8732 40.632 84.2945 40.328 84.6359 39.944C84.9772 39.5493 85.2332 39.0907 85.4039 38.568C85.5745 38.0453 85.6599 37.48 85.6599 36.872C85.6599 36.264 85.5745 35.6987 85.4039 35.176C85.2332 34.6427 84.9772 34.184 84.6359 33.8C84.2945 33.4053 83.8732 33.096 83.3719 32.872C82.8812 32.648 82.3052 32.536 81.6439 32.536C80.9932 32.536 80.4172 32.648 79.9159 32.872C79.4145 33.096 78.9932 33.4053 78.6519 33.8C78.3105 34.184 78.0545 34.6427 77.8839 35.176C77.7132 35.6987 77.6279 36.264 77.6279 36.872ZM95.6894 40.296V32.728H94.4094V33.912H94.3934C94.148 33.4533 93.8067 33.112 93.3694 32.888C92.932 32.6533 92.452 32.536 91.9294 32.536C91.2147 32.536 90.612 32.6747 90.1214 32.952C89.6307 33.2187 89.236 33.5653 88.9374 33.992C88.6387 34.408 88.4254 34.8773 88.2974 35.4C88.1694 35.912 88.1054 36.4133 88.1054 36.904C88.1054 37.4693 88.18 38.008 88.3294 38.52C88.4894 39.0213 88.724 39.464 89.0334 39.848C89.3427 40.2213 89.7267 40.52 90.1854 40.744C90.644 40.968 91.1827 41.08 91.8014 41.08C92.3347 41.08 92.836 40.9627 93.3054 40.728C93.7854 40.4827 94.1427 40.104 94.3774 39.592H94.4094V40.136C94.4094 40.5947 94.3614 41.016 94.2654 41.4C94.18 41.784 94.036 42.1093 93.8334 42.376C93.6307 42.6533 93.3747 42.8667 93.0654 43.016C92.756 43.176 92.3774 43.256 91.9294 43.256C91.7054 43.256 91.4707 43.2293 91.2254 43.176C90.98 43.1333 90.7507 43.0587 90.5374 42.952C90.3347 42.8453 90.1587 42.7067 90.0094 42.536C89.8707 42.3653 89.796 42.1573 89.7854 41.912H88.4254C88.4467 42.36 88.564 42.7387 88.7774 43.048C88.9907 43.3573 89.2574 43.608 89.5774 43.8C89.908 43.992 90.2707 44.1307 90.6654 44.216C91.0707 44.3013 91.4654 44.344 91.8494 44.344C93.172 44.344 94.1427 44.008 94.7614 43.336C95.38 42.664 95.6894 41.6507 95.6894 40.296ZM91.8814 39.896C91.4334 39.896 91.06 39.8053 90.7614 39.624C90.4627 39.432 90.2227 39.1867 90.0414 38.888C89.86 38.5787 89.732 38.2373 89.6574 37.864C89.5827 37.4907 89.5454 37.1173 89.5454 36.744C89.5454 36.3493 89.588 35.9707 89.6734 35.608C89.7694 35.2453 89.9134 34.9253 90.1054 34.648C90.308 34.3707 90.564 34.152 90.8734 33.992C91.1827 33.8213 91.556 33.736 91.9934 33.736C92.42 33.736 92.7827 33.8213 93.0814 33.992C93.38 34.1627 93.62 34.392 93.8014 34.68C93.9934 34.9573 94.132 35.272 94.2174 35.624C94.3027 35.976 94.3454 36.3333 94.3454 36.696C94.3454 37.08 94.2974 37.464 94.2014 37.848C94.116 38.232 93.9774 38.5787 93.7854 38.888C93.5934 39.1867 93.3374 39.432 93.0174 39.624C92.708 39.8053 92.3294 39.896 91.8814 39.896ZM99.1109 29.576V41H100.471V29.576H99.1109ZM109.612 36.072H104.86C104.881 35.752 104.95 35.4533 105.068 35.176C105.185 34.888 105.345 34.6373 105.548 34.424C105.75 34.2107 105.99 34.0453 106.268 33.928C106.556 33.8 106.876 33.736 107.228 33.736C107.569 33.736 107.878 33.8 108.156 33.928C108.444 34.0453 108.689 34.2107 108.892 34.424C109.105 34.6267 109.27 34.872 109.388 35.16C109.516 35.448 109.59 35.752 109.612 36.072ZM110.924 38.376H109.58C109.462 38.92 109.217 39.3253 108.844 39.592C108.481 39.8587 108.012 39.992 107.436 39.992C106.988 39.992 106.598 39.9173 106.268 39.768C105.937 39.6187 105.665 39.4213 105.452 39.176C105.238 38.92 105.084 38.632 104.988 38.312C104.892 37.9813 104.849 37.6347 104.86 37.272H111.052C111.073 36.7707 111.025 36.2427 110.908 35.688C110.801 35.1333 110.598 34.6213 110.3 34.152C110.012 33.6827 109.622 33.2987 109.132 33C108.652 32.6907 108.044 32.536 107.308 32.536C106.742 32.536 106.22 32.6427 105.74 32.856C105.27 33.0693 104.86 33.368 104.508 33.752C104.166 34.136 103.9 34.5893 103.708 35.112C103.516 35.6347 103.42 36.2107 103.42 36.84C103.441 37.4693 103.532 38.0507 103.692 38.584C103.862 39.1173 104.113 39.576 104.444 39.96C104.774 40.344 105.18 40.6427 105.66 40.856C106.15 41.0693 106.726 41.176 107.388 41.176C108.326 41.176 109.105 40.9413 109.724 40.472C110.342 40.0027 110.742 39.304 110.924 38.376ZM121.239 35.048V30.856H124.215C125.079 30.856 125.708 31.0373 126.103 31.4C126.508 31.752 126.711 32.2693 126.711 32.952C126.711 33.6347 126.508 34.1573 126.103 34.52C125.708 34.8827 125.079 35.0587 124.215 35.048H121.239ZM119.719 29.576V41H121.239V36.328H124.727C125.879 36.3387 126.748 36.0453 127.335 35.448C127.932 34.8507 128.231 34.0187 128.231 32.952C128.231 31.8853 127.932 31.0587 127.335 30.472C126.748 29.8747 125.879 29.576 124.727 29.576H119.719ZM131.24 29.576V41H132.6V29.576H131.24ZM143.325 40.968C143.09 41.1067 142.765 41.176 142.349 41.176C141.997 41.176 141.714 41.08 141.501 40.888C141.298 40.6853 141.197 40.36 141.197 39.912C140.823 40.36 140.386 40.6853 139.885 40.888C139.394 41.08 138.861 41.176 138.285 41.176C137.911 41.176 137.554 41.1333 137.213 41.048C136.882 40.9627 136.594 40.8293 136.349 40.648C136.103 40.4667 135.906 40.232 135.757 39.944C135.618 39.6453 135.549 39.288 135.549 38.872C135.549 38.4027 135.629 38.0187 135.789 37.72C135.949 37.4213 136.157 37.1813 136.413 37C136.679 36.808 136.978 36.664 137.309 36.568C137.65 36.472 137.997 36.392 138.349 36.328C138.722 36.2533 139.074 36.2 139.405 36.168C139.746 36.1253 140.045 36.072 140.301 36.008C140.557 35.9333 140.759 35.832 140.909 35.704C141.058 35.5653 141.133 35.368 141.133 35.112C141.133 34.8133 141.074 34.5733 140.957 34.392C140.85 34.2107 140.706 34.072 140.525 33.976C140.354 33.88 140.157 33.816 139.933 33.784C139.719 33.752 139.506 33.736 139.293 33.736C138.717 33.736 138.237 33.848 137.853 34.072C137.469 34.2853 137.261 34.696 137.229 35.304H135.869C135.89 34.792 135.997 34.36 136.189 34.008C136.381 33.656 136.637 33.3733 136.957 33.16C137.277 32.936 137.639 32.776 138.045 32.68C138.461 32.584 138.903 32.536 139.373 32.536C139.746 32.536 140.114 32.5627 140.477 32.616C140.85 32.6693 141.186 32.7813 141.485 32.952C141.783 33.112 142.023 33.3413 142.205 33.64C142.386 33.9387 142.477 34.328 142.477 34.808V39.064C142.477 39.384 142.493 39.6187 142.525 39.768C142.567 39.9173 142.695 39.992 142.909 39.992C143.026 39.992 143.165 39.9653 143.325 39.912V40.968ZM141.117 36.728C140.946 36.856 140.722 36.952 140.445 37.016C140.167 37.0693 139.874 37.1173 139.565 37.16C139.266 37.192 138.962 37.2347 138.653 37.288C138.343 37.3307 138.066 37.4053 137.821 37.512C137.575 37.6187 137.373 37.7733 137.213 37.976C137.063 38.168 136.989 38.4347 136.989 38.776C136.989 39 137.031 39.192 137.117 39.352C137.213 39.5013 137.33 39.624 137.469 39.72C137.618 39.816 137.789 39.8853 137.981 39.928C138.173 39.9707 138.375 39.992 138.589 39.992C139.037 39.992 139.421 39.9333 139.741 39.816C140.061 39.688 140.322 39.5333 140.525 39.352C140.727 39.16 140.877 38.9573 140.973 38.744C141.069 38.52 141.117 38.312 141.117 38.12V36.728ZM149.128 42.104C148.968 42.5093 148.808 42.8507 148.648 43.128C148.499 43.4053 148.328 43.6293 148.136 43.8C147.955 43.9813 147.747 44.1093 147.512 44.184C147.288 44.2693 147.027 44.312 146.728 44.312C146.568 44.312 146.408 44.3013 146.248 44.28C146.088 44.2587 145.934 44.2213 145.784 44.168V42.92C145.902 42.9733 146.035 43.016 146.184 43.048C146.344 43.0907 146.478 43.112 146.584 43.112C146.862 43.112 147.091 43.0427 147.272 42.904C147.464 42.776 147.608 42.5893 147.704 42.344L148.264 40.952L144.984 32.728H146.52L148.936 39.496H148.968L151.288 32.728H152.728L149.128 42.104Z" fill="black"/>
<rect x="0.25" y="0.25" width="179.5" height="51.5" rx="9.75" stroke="black" stroke-width="0.5"/>
<path d="M29.633 79.3416C27.976 79.8906 26.405 80.4456 25.252 81.5916C24.099 82.7376 23.49 84.4486 23.682 86.9306C23.709 87.3256 24.144 87.6416 24.538 87.5546C26.259 87.1746 27.946 86.5086 29.138 85.2726C30.331 84.0356 30.946 82.2156 30.555 79.8796C30.456 79.3376 30.045 79.2246 29.633 79.3416ZM19.433 87.9096C20.293 87.9096 21.151 88.2726 22.013 88.6956C22.875 89.1176 23.708 89.6316 24.703 89.6316C25.828 89.5266 26.887 89.0456 27.766 88.6846C28.783 88.2706 29.807 87.9096 30.676 87.9096C32.246 87.9096 33.924 88.8956 34.946 89.9446C33.014 91.6246 31.379 93.5986 31.379 95.8326C31.391 98.8546 33.388 100.508 35.496 101.968C35.0822 103.674 34.2984 105.269 33.2 106.64C32.046 108.054 30.675 108.922 29.62 108.922C28.723 108.922 27.956 108.634 27.183 108.298C26.411 107.961 25.639 107.544 24.702 107.544C23.765 107.544 22.93 107.948 22.067 108.287C21.204 108.626 20.33 108.922 19.432 108.922C19.037 108.922 18.309 108.595 17.522 107.867C16.734 107.139 15.88 106.053 15.117 104.745C13.593 102.128 12.406 98.6066 12.406 95.1436C12.34 91.0166 15.854 87.9166 19.433 87.9096Z" fill="black"/>
<path d="M45.6059 87.88V80.124H47.8459C48.4619 80.124 48.9799 80.2127 49.3999 80.39C49.8199 80.558 50.1605 80.81 50.4219 81.146C50.6925 81.4727 50.8839 81.874 50.9959 82.35C51.1172 82.8167 51.1779 83.3487 51.1779 83.946C51.1779 84.562 51.1125 85.0893 50.9819 85.528C50.8605 85.9573 50.7019 86.3167 50.5059 86.606C50.3099 86.8953 50.0859 87.124 49.8339 87.292C49.5912 87.46 49.3439 87.5907 49.0919 87.684C48.8399 87.768 48.6019 87.824 48.3779 87.852C48.1539 87.8707 47.9672 87.88 47.8179 87.88H45.6059ZM44.2759 79.004V89H47.7059C48.5365 89 49.2552 88.8833 49.8619 88.65C50.4685 88.4167 50.9679 88.0807 51.3599 87.642C51.7519 87.194 52.0412 86.648 52.2279 86.004C52.4145 85.3507 52.5079 84.604 52.5079 83.764C52.5079 82.1587 52.0925 80.964 51.2619 80.18C50.4312 79.396 49.2459 79.004 47.7059 79.004H44.2759ZM56.0953 85.388C56.0953 84.9493 56.1513 84.562 56.2633 84.226C56.3846 83.8807 56.548 83.5913 56.7533 83.358C56.9586 83.1247 57.1966 82.9473 57.4673 82.826C57.7473 82.7047 58.0413 82.644 58.3493 82.644C58.6573 82.644 58.9466 82.7047 59.2173 82.826C59.4973 82.9473 59.74 83.1247 59.9453 83.358C60.1506 83.5913 60.3093 83.8807 60.4213 84.226C60.5426 84.562 60.6033 84.9493 60.6033 85.388C60.6033 85.8267 60.5426 86.2187 60.4213 86.564C60.3093 86.9 60.1506 87.1847 59.9453 87.418C59.74 87.642 59.4973 87.8147 59.2173 87.936C58.9466 88.0573 58.6573 88.118 58.3493 88.118C58.0413 88.118 57.7473 88.0573 57.4673 87.936C57.1966 87.8147 56.9586 87.642 56.7533 87.418C56.548 87.1847 56.3846 86.9 56.2633 86.564C56.1513 86.2187 56.0953 85.8267 56.0953 85.388ZM54.8353 85.388C54.8353 85.92 54.91 86.4147 55.0593 86.872C55.2086 87.3293 55.4326 87.7307 55.7313 88.076C56.03 88.412 56.3986 88.678 56.8373 88.874C57.276 89.0607 57.78 89.154 58.3493 89.154C58.928 89.154 59.432 89.0607 59.8613 88.874C60.3 88.678 60.6686 88.412 60.9673 88.076C61.266 87.7307 61.49 87.3293 61.6393 86.872C61.7886 86.4147 61.8633 85.92 61.8633 85.388C61.8633 84.856 61.7886 84.3613 61.6393 83.904C61.49 83.4373 61.266 83.036 60.9673 82.7C60.6686 82.3547 60.3 82.084 59.8613 81.888C59.432 81.692 58.928 81.594 58.3493 81.594C57.78 81.594 57.276 81.692 56.8373 81.888C56.3986 82.084 56.03 82.3547 55.7313 82.7C55.4326 83.036 55.2086 83.4373 55.0593 83.904C54.91 84.3613 54.8353 84.856 54.8353 85.388ZM71.7244 89L74.0344 81.762H72.8024L71.1784 87.684H71.1504L69.6384 81.762H68.3364L66.8804 87.684H66.8524L65.2144 81.762H63.8984L66.2224 89H67.5104L68.9664 83.246H68.9944L70.4644 89H71.7244ZM76.4557 81.762V89H77.6457V84.912C77.6457 84.5853 77.6877 84.2867 77.7717 84.016C77.8651 83.736 78.0004 83.4933 78.1777 83.288C78.3551 83.0827 78.5744 82.924 78.8357 82.812C79.1064 82.7 79.4237 82.644 79.7877 82.644C80.2451 82.644 80.6044 82.7747 80.8657 83.036C81.1271 83.2973 81.2577 83.652 81.2577 84.1V89H82.4477V84.24C82.4477 83.848 82.4057 83.4933 82.3217 83.176C82.2471 82.8493 82.1117 82.5693 81.9157 82.336C81.7197 82.1027 81.4631 81.9207 81.1457 81.79C80.8284 81.6593 80.4317 81.594 79.9557 81.594C78.8824 81.594 78.0984 82.0327 77.6037 82.91H77.5757V81.762H76.4557ZM85.595 79.004V89H86.785V79.004H85.595ZM90.7865 85.388C90.7865 84.9493 90.8425 84.562 90.9545 84.226C91.0759 83.8807 91.2392 83.5913 91.4445 83.358C91.6499 83.1247 91.8879 82.9473 92.1585 82.826C92.4385 82.7047 92.7325 82.644 93.0405 82.644C93.3485 82.644 93.6379 82.7047 93.9085 82.826C94.1885 82.9473 94.4312 83.1247 94.6365 83.358C94.8419 83.5913 95.0005 83.8807 95.1125 84.226C95.2339 84.562 95.2945 84.9493 95.2945 85.388C95.2945 85.8267 95.2339 86.2187 95.1125 86.564C95.0005 86.9 94.8419 87.1847 94.6365 87.418C94.4312 87.642 94.1885 87.8147 93.9085 87.936C93.6379 88.0573 93.3485 88.118 93.0405 88.118C92.7325 88.118 92.4385 88.0573 92.1585 87.936C91.8879 87.8147 91.6499 87.642 91.4445 87.418C91.2392 87.1847 91.0759 86.9 90.9545 86.564C90.8425 86.2187 90.7865 85.8267 90.7865 85.388ZM89.5265 85.388C89.5265 85.92 89.6012 86.4147 89.7505 86.872C89.8999 87.3293 90.1239 87.7307 90.4225 88.076C90.7212 88.412 91.0899 88.678 91.5285 88.874C91.9672 89.0607 92.4712 89.154 93.0405 89.154C93.6192 89.154 94.1232 89.0607 94.5525 88.874C94.9912 88.678 95.3599 88.412 95.6585 88.076C95.9572 87.7307 96.1812 87.3293 96.3305 86.872C96.4799 86.4147 96.5545 85.92 96.5545 85.388C96.5545 84.856 96.4799 84.3613 96.3305 83.904C96.1812 83.4373 95.9572 83.036 95.6585 82.7C95.3599 82.3547 94.9912 82.084 94.5525 81.888C94.1232 81.692 93.6192 81.594 93.0405 81.594C92.4712 81.594 91.9672 81.692 91.5285 81.888C91.0899 82.084 90.7212 82.3547 90.4225 82.7C90.1239 83.036 89.8999 83.4373 89.7505 83.904C89.6012 84.3613 89.5265 84.856 89.5265 85.388ZM105.66 88.972C105.454 89.0933 105.17 89.154 104.806 89.154C104.498 89.154 104.25 89.07 104.064 88.902C103.886 88.7247 103.798 88.44 103.798 88.048C103.471 88.44 103.088 88.7247 102.65 88.902C102.22 89.07 101.754 89.154 101.25 89.154C100.923 89.154 100.61 89.1167 100.312 89.042C100.022 88.9673 99.7703 88.8507 99.5556 88.692C99.3409 88.5333 99.1683 88.328 99.0376 88.076C98.9163 87.8147 98.8556 87.502 98.8556 87.138C98.8556 86.7273 98.9256 86.3913 99.0656 86.13C99.2056 85.8687 99.3876 85.6587 99.6116 85.5C99.8449 85.332 100.106 85.206 100.396 85.122C100.694 85.038 100.998 84.968 101.306 84.912C101.632 84.8467 101.94 84.8 102.23 84.772C102.528 84.7347 102.79 84.688 103.014 84.632C103.238 84.5667 103.415 84.478 103.546 84.366C103.676 84.2447 103.742 84.072 103.742 83.848C103.742 83.5867 103.69 83.3767 103.588 83.218C103.494 83.0593 103.368 82.938 103.21 82.854C103.06 82.77 102.888 82.714 102.692 82.686C102.505 82.658 102.318 82.644 102.132 82.644C101.628 82.644 101.208 82.742 100.872 82.938C100.536 83.1247 100.354 83.484 100.326 84.016H99.1356C99.1543 83.568 99.2476 83.19 99.4156 82.882C99.5836 82.574 99.8076 82.3267 100.088 82.14C100.368 81.944 100.685 81.804 101.04 81.72C101.404 81.636 101.791 81.594 102.202 81.594C102.528 81.594 102.85 81.6173 103.168 81.664C103.494 81.7107 103.788 81.8087 104.05 81.958C104.311 82.098 104.521 82.2987 104.68 82.56C104.838 82.8213 104.918 83.162 104.918 83.582V87.306C104.918 87.586 104.932 87.7913 104.96 87.922C104.997 88.0527 105.109 88.118 105.296 88.118C105.398 88.118 105.52 88.0947 105.66 88.048V88.972ZM103.728 85.262C103.578 85.374 103.382 85.458 103.14 85.514C102.897 85.5607 102.64 85.6027 102.37 85.64C102.108 85.668 101.842 85.7053 101.572 85.752C101.301 85.7893 101.058 85.8547 100.844 85.948C100.629 86.0413 100.452 86.1767 100.312 86.354C100.181 86.522 100.116 86.7553 100.116 87.054C100.116 87.25 100.153 87.418 100.228 87.558C100.312 87.6887 100.414 87.796 100.536 87.88C100.666 87.964 100.816 88.0247 100.984 88.062C101.152 88.0993 101.329 88.118 101.516 88.118C101.908 88.118 102.244 88.0667 102.524 87.964C102.804 87.852 103.032 87.7167 103.21 87.558C103.387 87.39 103.518 87.2127 103.602 87.026C103.686 86.83 103.728 86.648 103.728 86.48V85.262ZM108.925 85.444C108.925 85.0893 108.962 84.744 109.037 84.408C109.112 84.072 109.233 83.7733 109.401 83.512C109.569 83.2507 109.793 83.0407 110.073 82.882C110.353 82.7233 110.694 82.644 111.095 82.644C111.506 82.644 111.856 82.7233 112.145 82.882C112.434 83.0313 112.668 83.232 112.845 83.484C113.032 83.736 113.167 84.03 113.251 84.366C113.335 84.6927 113.377 85.0333 113.377 85.388C113.377 85.724 113.335 86.0553 113.251 86.382C113.176 86.7087 113.05 87.0027 112.873 87.264C112.696 87.516 112.467 87.7213 112.187 87.88C111.907 88.0387 111.566 88.118 111.165 88.118C110.782 88.118 110.446 88.0433 110.157 87.894C109.877 87.7447 109.644 87.544 109.457 87.292C109.28 87.04 109.144 86.7553 109.051 86.438C108.967 86.1113 108.925 85.78 108.925 85.444ZM114.525 89V79.004H113.335V82.728H113.307C113.176 82.5133 113.013 82.336 112.817 82.196C112.63 82.0467 112.43 81.93 112.215 81.846C112 81.7527 111.786 81.6873 111.571 81.65C111.356 81.6127 111.156 81.594 110.969 81.594C110.418 81.594 109.933 81.6967 109.513 81.902C109.102 82.098 108.757 82.3687 108.477 82.714C108.206 83.05 108.001 83.4467 107.861 83.904C107.73 84.3613 107.665 84.8467 107.665 85.36C107.665 85.8733 107.735 86.3587 107.875 86.816C108.015 87.2733 108.22 87.6747 108.491 88.02C108.771 88.3653 109.116 88.6407 109.527 88.846C109.947 89.0513 110.437 89.154 110.997 89.154C111.501 89.154 111.963 89.0653 112.383 88.888C112.803 88.7107 113.111 88.4213 113.307 88.02H113.335V89H114.525ZM123.7 85.388C123.7 84.9493 123.756 84.562 123.868 84.226C123.99 83.8807 124.153 83.5913 124.358 83.358C124.564 83.1247 124.802 82.9473 125.072 82.826C125.352 82.7047 125.646 82.644 125.954 82.644C126.262 82.644 126.552 82.7047 126.822 82.826C127.102 82.9473 127.345 83.1247 127.55 83.358C127.756 83.5913 127.914 83.8807 128.026 84.226C128.148 84.562 128.208 84.9493 128.208 85.388C128.208 85.8267 128.148 86.2187 128.026 86.564C127.914 86.9 127.756 87.1847 127.55 87.418C127.345 87.642 127.102 87.8147 126.822 87.936C126.552 88.0573 126.262 88.118 125.954 88.118C125.646 88.118 125.352 88.0573 125.072 87.936C124.802 87.8147 124.564 87.642 124.358 87.418C124.153 87.1847 123.99 86.9 123.868 86.564C123.756 86.2187 123.7 85.8267 123.7 85.388ZM122.44 85.388C122.44 85.92 122.515 86.4147 122.664 86.872C122.814 87.3293 123.038 87.7307 123.336 88.076C123.635 88.412 124.004 88.678 124.442 88.874C124.881 89.0607 125.385 89.154 125.954 89.154C126.533 89.154 127.037 89.0607 127.466 88.874C127.905 88.678 128.274 88.412 128.572 88.076C128.871 87.7307 129.095 87.3293 129.244 86.872C129.394 86.4147 129.468 85.92 129.468 85.388C129.468 84.856 129.394 84.3613 129.244 83.904C129.095 83.4373 128.871 83.036 128.572 82.7C128.274 82.3547 127.905 82.084 127.466 81.888C127.037 81.692 126.533 81.594 125.954 81.594C125.385 81.594 124.881 81.692 124.442 81.888C124.004 82.084 123.635 82.3547 123.336 82.7C123.038 83.036 122.814 83.4373 122.664 83.904C122.515 84.3613 122.44 84.856 122.44 85.388ZM132.162 81.762V89H133.352V84.912C133.352 84.5853 133.394 84.2867 133.478 84.016C133.571 83.736 133.706 83.4933 133.884 83.288C134.061 83.0827 134.28 82.924 134.542 82.812C134.812 82.7 135.13 82.644 135.494 82.644C135.951 82.644 136.31 82.7747 136.572 83.036C136.833 83.2973 136.964 83.652 136.964 84.1V89H138.154V84.24C138.154 83.848 138.112 83.4933 138.028 83.176C137.953 82.8493 137.818 82.5693 137.622 82.336C137.426 82.1027 137.169 81.9207 136.852 81.79C136.534 81.6593 136.138 81.594 135.662 81.594C134.588 81.594 133.804 82.0327 133.31 82.91H133.282V81.762H132.162ZM148.069 81.762V79.592H146.879V81.762H145.647V82.812H146.879V87.418C146.879 87.754 146.912 88.0247 146.977 88.23C147.043 88.4353 147.141 88.594 147.271 88.706C147.411 88.818 147.589 88.8973 147.803 88.944C148.027 88.9813 148.293 89 148.601 89H149.511V87.95H148.965C148.779 87.95 148.625 87.9453 148.503 87.936C148.391 87.9173 148.303 87.8847 148.237 87.838C148.172 87.7913 148.125 87.726 148.097 87.642C148.079 87.558 148.069 87.446 148.069 87.306V82.812H149.511V81.762H148.069ZM152.123 79.004V89H153.313V84.912C153.313 84.5853 153.355 84.2867 153.439 84.016C153.533 83.736 153.668 83.4933 153.845 83.288C154.023 83.0827 154.242 82.924 154.503 82.812C154.774 82.7 155.091 82.644 155.455 82.644C155.913 82.644 156.272 82.7747 156.533 83.036C156.795 83.2973 156.925 83.652 156.925 84.1V89H158.115V84.24C158.115 83.848 158.073 83.4933 157.989 83.176C157.915 82.8493 157.779 82.5693 157.583 82.336C157.387 82.1027 157.131 81.9207 156.813 81.79C156.496 81.6593 156.099 81.594 155.623 81.594C155.409 81.594 155.185 81.6173 154.951 81.664C154.727 81.7107 154.508 81.7853 154.293 81.888C154.088 81.9813 153.901 82.1073 153.733 82.266C153.565 82.4153 153.435 82.602 153.341 82.826H153.313V79.004H152.123ZM166.219 84.688H162.061C162.079 84.408 162.14 84.1467 162.243 83.904C162.345 83.652 162.485 83.4327 162.663 83.246C162.84 83.0593 163.05 82.9147 163.293 82.812C163.545 82.7 163.825 82.644 164.133 82.644C164.431 82.644 164.702 82.7 164.945 82.812C165.197 82.9147 165.411 83.0593 165.589 83.246C165.775 83.4233 165.92 83.638 166.023 83.89C166.135 84.142 166.2 84.408 166.219 84.688ZM167.367 86.704H166.191C166.088 87.18 165.873 87.5347 165.547 87.768C165.229 88.0013 164.819 88.118 164.315 88.118C163.923 88.118 163.582 88.0527 163.293 87.922C163.003 87.7913 162.765 87.6187 162.579 87.404C162.392 87.18 162.257 86.928 162.173 86.648C162.089 86.3587 162.051 86.0553 162.061 85.738H167.479C167.497 85.2993 167.455 84.8373 167.353 84.352C167.259 83.8667 167.082 83.4187 166.821 83.008C166.569 82.5973 166.228 82.2613 165.799 82C165.379 81.7293 164.847 81.594 164.203 81.594C163.708 81.594 163.251 81.6873 162.831 81.874C162.42 82.0607 162.061 82.322 161.753 82.658C161.454 82.994 161.221 83.3907 161.053 83.848C160.885 84.3053 160.801 84.8093 160.801 85.36C160.819 85.9107 160.899 86.4193 161.039 86.886C161.188 87.3527 161.407 87.754 161.697 88.09C161.986 88.426 162.341 88.6873 162.761 88.874C163.19 89.0607 163.694 89.154 164.273 89.154C165.094 89.154 165.775 88.9487 166.317 88.538C166.858 88.1273 167.208 87.516 167.367 86.704Z" fill="black"/>
<path d="M67.5326 104.28L69.4686 98.952H69.5006L71.4046 104.28H67.5326ZM68.6686 97.576L64.2206 109H65.7726L67.0526 105.56H71.8846L73.1326 109H74.8126L70.3486 97.576H68.6686ZM77.0536 100.728V112.152H78.4136V107.896H78.4456C78.5949 108.141 78.7762 108.349 78.9896 108.52C79.2136 108.68 79.4482 108.808 79.6936 108.904C79.9389 109 80.1842 109.069 80.4296 109.112C80.6856 109.155 80.9149 109.176 81.1176 109.176C81.7469 109.176 82.2962 109.064 82.7656 108.84C83.2456 108.616 83.6402 108.312 83.9496 107.928C84.2696 107.533 84.5042 107.075 84.6536 106.552C84.8136 106.029 84.8936 105.475 84.8936 104.888C84.8936 104.301 84.8136 103.747 84.6536 103.224C84.4936 102.701 84.2536 102.243 83.9336 101.848C83.6242 101.443 83.2296 101.123 82.7496 100.888C82.2802 100.653 81.7256 100.536 81.0856 100.536C80.5096 100.536 79.9816 100.643 79.5016 100.856C79.0216 101.059 78.6696 101.389 78.4456 101.848H78.4136V100.728H77.0536ZM83.4536 104.792C83.4536 105.197 83.4109 105.592 83.3256 105.976C83.2402 106.36 83.1016 106.701 82.9096 107C82.7176 107.299 82.4616 107.539 82.1416 107.72C81.8322 107.901 81.4429 107.992 80.9736 107.992C80.5042 107.992 80.1042 107.907 79.7736 107.736C79.4429 107.555 79.1709 107.32 78.9576 107.032C78.7549 106.744 78.6056 106.413 78.5096 106.04C78.4136 105.656 78.3656 105.261 78.3656 104.856C78.3656 104.472 78.4082 104.093 78.4936 103.72C78.5896 103.347 78.7389 103.016 78.9416 102.728C79.1442 102.429 79.4056 102.189 79.7256 102.008C80.0456 101.827 80.4349 101.736 80.8936 101.736C81.3309 101.736 81.7096 101.821 82.0296 101.992C82.3602 102.163 82.6269 102.392 82.8296 102.68C83.0429 102.968 83.1976 103.299 83.2936 103.672C83.4002 104.035 83.4536 104.408 83.4536 104.792ZM87.8279 100.728V112.152H89.1879V107.896H89.2199C89.3693 108.141 89.5506 108.349 89.7639 108.52C89.9879 108.68 90.2226 108.808 90.4679 108.904C90.7133 109 90.9586 109.069 91.2039 109.112C91.4599 109.155 91.6893 109.176 91.8919 109.176C92.5213 109.176 93.0706 109.064 93.5399 108.84C94.0199 108.616 94.4146 108.312 94.7239 107.928C95.0439 107.533 95.2786 107.075 95.4279 106.552C95.5879 106.029 95.6679 105.475 95.6679 104.888C95.6679 104.301 95.5879 103.747 95.4279 103.224C95.2679 102.701 95.0279 102.243 94.7079 101.848C94.3986 101.443 94.0039 101.123 93.5239 100.888C93.0546 100.653 92.4999 100.536 91.8599 100.536C91.2839 100.536 90.7559 100.643 90.2759 100.856C89.7959 101.059 89.4439 101.389 89.2199 101.848H89.1879V100.728H87.8279ZM94.2279 104.792C94.2279 105.197 94.1853 105.592 94.0999 105.976C94.0146 106.36 93.8759 106.701 93.6839 107C93.4919 107.299 93.2359 107.539 92.9159 107.72C92.6066 107.901 92.2173 107.992 91.7479 107.992C91.2786 107.992 90.8786 107.907 90.5479 107.736C90.2173 107.555 89.9453 107.32 89.7319 107.032C89.5293 106.744 89.3799 106.413 89.2839 106.04C89.1879 105.656 89.1399 105.261 89.1399 104.856C89.1399 104.472 89.1826 104.093 89.2679 103.72C89.3639 103.347 89.5133 103.016 89.7159 102.728C89.9186 102.429 90.1799 102.189 90.4999 102.008C90.8199 101.827 91.2093 101.736 91.6679 101.736C92.1053 101.736 92.4839 101.821 92.8039 101.992C93.1346 102.163 93.4013 102.392 93.6039 102.68C93.8173 102.968 93.9719 103.299 94.0679 103.672C94.1746 104.035 94.2279 104.408 94.2279 104.792ZM111.129 100.92H112.569C112.548 100.291 112.425 99.752 112.201 99.304C111.988 98.8453 111.689 98.4667 111.305 98.168C110.932 97.8693 110.495 97.6507 109.993 97.512C109.492 97.3733 108.948 97.304 108.361 97.304C107.839 97.304 107.327 97.3733 106.825 97.512C106.335 97.64 105.892 97.8427 105.497 98.12C105.113 98.3867 104.804 98.7333 104.569 99.16C104.335 99.576 104.217 100.072 104.217 100.648C104.217 101.171 104.319 101.608 104.521 101.96C104.735 102.301 105.012 102.584 105.353 102.808C105.705 103.021 106.1 103.197 106.537 103.336C106.975 103.464 107.417 103.581 107.865 103.688C108.324 103.784 108.772 103.88 109.209 103.976C109.647 104.072 110.036 104.2 110.377 104.36C110.729 104.509 111.007 104.707 111.209 104.952C111.423 105.197 111.529 105.517 111.529 105.912C111.529 106.328 111.444 106.669 111.273 106.936C111.103 107.203 110.879 107.416 110.601 107.576C110.324 107.725 110.009 107.832 109.657 107.896C109.316 107.96 108.975 107.992 108.633 107.992C108.207 107.992 107.791 107.939 107.385 107.832C106.98 107.725 106.623 107.56 106.313 107.336C106.015 107.112 105.769 106.829 105.577 106.488C105.396 106.136 105.305 105.72 105.305 105.24H103.865C103.865 105.933 103.988 106.536 104.233 107.048C104.489 107.549 104.831 107.965 105.257 108.296C105.695 108.616 106.196 108.856 106.761 109.016C107.337 109.176 107.945 109.256 108.585 109.256C109.108 109.256 109.631 109.192 110.153 109.064C110.687 108.947 111.167 108.755 111.593 108.488C112.02 108.211 112.367 107.859 112.633 107.432C112.911 106.995 113.049 106.472 113.049 105.864C113.049 105.299 112.943 104.829 112.729 104.456C112.527 104.083 112.249 103.773 111.897 103.528C111.556 103.283 111.167 103.091 110.729 102.952C110.292 102.803 109.844 102.675 109.385 102.568C108.937 102.461 108.495 102.365 108.057 102.28C107.62 102.184 107.225 102.067 106.873 101.928C106.532 101.789 106.255 101.613 106.041 101.4C105.839 101.176 105.737 100.888 105.737 100.536C105.737 100.163 105.807 99.8533 105.945 99.608C106.095 99.352 106.287 99.1493 106.521 99C106.767 98.8507 107.044 98.744 107.353 98.68C107.663 98.616 107.977 98.584 108.297 98.584C109.087 98.584 109.732 98.7707 110.233 99.144C110.745 99.5067 111.044 100.099 111.129 100.92ZM117.85 100.728V98.248H116.49V100.728H115.082V101.928H116.49V107.192C116.49 107.576 116.528 107.885 116.602 108.12C116.677 108.355 116.789 108.536 116.938 108.664C117.098 108.792 117.301 108.883 117.546 108.936C117.802 108.979 118.106 109 118.458 109H119.498V107.8H118.874C118.661 107.8 118.485 107.795 118.346 107.784C118.218 107.763 118.117 107.725 118.042 107.672C117.968 107.619 117.914 107.544 117.882 107.448C117.861 107.352 117.85 107.224 117.85 107.064V101.928H119.498V100.728H117.85ZM123.291 104.872C123.291 104.371 123.355 103.928 123.483 103.544C123.622 103.149 123.809 102.819 124.043 102.552C124.278 102.285 124.55 102.083 124.859 101.944C125.179 101.805 125.515 101.736 125.867 101.736C126.219 101.736 126.55 101.805 126.859 101.944C127.179 102.083 127.457 102.285 127.691 102.552C127.926 102.819 128.107 103.149 128.235 103.544C128.374 103.928 128.443 104.371 128.443 104.872C128.443 105.373 128.374 105.821 128.235 106.216C128.107 106.6 127.926 106.925 127.691 107.192C127.457 107.448 127.179 107.645 126.859 107.784C126.55 107.923 126.219 107.992 125.867 107.992C125.515 107.992 125.179 107.923 124.859 107.784C124.55 107.645 124.278 107.448 124.043 107.192C123.809 106.925 123.622 106.6 123.483 106.216C123.355 105.821 123.291 105.373 123.291 104.872ZM121.851 104.872C121.851 105.48 121.937 106.045 122.107 106.568C122.278 107.091 122.534 107.549 122.875 107.944C123.217 108.328 123.638 108.632 124.139 108.856C124.641 109.069 125.217 109.176 125.867 109.176C126.529 109.176 127.105 109.069 127.595 108.856C128.097 108.632 128.518 108.328 128.859 107.944C129.201 107.549 129.457 107.091 129.627 106.568C129.798 106.045 129.883 105.48 129.883 104.872C129.883 104.264 129.798 103.699 129.627 103.176C129.457 102.643 129.201 102.184 128.859 101.8C128.518 101.405 128.097 101.096 127.595 100.872C127.105 100.648 126.529 100.536 125.867 100.536C125.217 100.536 124.641 100.648 124.139 100.872C123.638 101.096 123.217 101.405 122.875 101.8C122.534 102.184 122.278 102.643 122.107 103.176C121.937 103.699 121.851 104.264 121.851 104.872ZM132.729 100.728V109H134.089V105.32C134.089 104.787 134.142 104.317 134.249 103.912C134.355 103.496 134.526 103.144 134.761 102.856C134.995 102.568 135.305 102.349 135.689 102.2C136.073 102.051 136.537 101.976 137.081 101.976V100.536C136.345 100.515 135.737 100.664 135.257 100.984C134.777 101.304 134.371 101.8 134.041 102.472H134.009V100.728H132.729ZM144.858 104.072H140.106C140.127 103.752 140.196 103.453 140.314 103.176C140.431 102.888 140.591 102.637 140.794 102.424C140.996 102.211 141.236 102.045 141.514 101.928C141.802 101.8 142.122 101.736 142.474 101.736C142.815 101.736 143.124 101.8 143.402 101.928C143.69 102.045 143.935 102.211 144.138 102.424C144.351 102.627 144.516 102.872 144.634 103.16C144.762 103.448 144.836 103.752 144.858 104.072ZM146.17 106.376H144.826C144.708 106.92 144.463 107.325 144.09 107.592C143.727 107.859 143.258 107.992 142.682 107.992C142.234 107.992 141.844 107.917 141.514 107.768C141.183 107.619 140.911 107.421 140.698 107.176C140.484 106.92 140.33 106.632 140.234 106.312C140.138 105.981 140.095 105.635 140.106 105.272H146.298C146.319 104.771 146.271 104.243 146.154 103.688C146.047 103.133 145.844 102.621 145.546 102.152C145.258 101.683 144.868 101.299 144.378 101C143.898 100.691 143.29 100.536 142.554 100.536C141.988 100.536 141.466 100.643 140.986 100.856C140.516 101.069 140.106 101.368 139.754 101.752C139.412 102.136 139.146 102.589 138.954 103.112C138.762 103.635 138.666 104.211 138.666 104.84C138.687 105.469 138.778 106.051 138.938 106.584C139.108 107.117 139.359 107.576 139.69 107.96C140.02 108.344 140.426 108.643 140.906 108.856C141.396 109.069 141.972 109.176 142.634 109.176C143.572 109.176 144.351 108.941 144.97 108.472C145.588 108.003 145.988 107.304 146.17 106.376Z" fill="black"/>
<rect x="0.25" y="68.25" width="179.5" height="51.5" rx="9.75" stroke="black" stroke-width="0.5"/>
<defs>
<clipPath id="clip0_126_5521">
<rect width="19" height="25" fill="white" transform="translate(12 13.5)"/>
</clipPath>
</defs>
</svg>
