<svg width="78" height="61" viewBox="0 0 78 61" fill="none" xmlns="http://www.w3.org/2000/svg">
<path fill-rule="evenodd" clip-rule="evenodd" d="M44.8132 43.4208L32.1038 25.9434L45.5681 42.8504C45.7229 43.0425 45.6817 43.3303 45.4755 43.4925C45.2702 43.6539 44.979 43.6283 44.825 43.437C44.8206 43.432 44.8166 43.4265 44.8132 43.4208Z" fill="#010202"/>
<path d="M44.8974 42.7293C45.6009 43.6276 46.2489 51.5158 46.2489 51.5158C46.2489 51.5158 50.8604 46.3003 51.9005 38.9867C52.9389 31.6731 51.5218 30.6954 50.2915 26.981C49.0612 23.2666 43.8707 18.478 41.2149 17.163C39.2996 16.2152 33.1667 14.0599 29.8444 12.9149C28.6477 12.505 27.2988 13.1813 26.8738 14.3972C24.9013 20.0483 24.5268 26.093 26.1535 31.6578C27.1187 34.9572 28.7782 38.0739 31.6166 39.6007C31.6166 39.6007 38.2275 42.8967 42.6295 42.0633C47.0298 41.2299 46.2203 49.6287 46.2203 49.6287" stroke="#010202" stroke-width="0.5" stroke-linecap="round" stroke-linejoin="round"/>
<path fill-rule="evenodd" clip-rule="evenodd" d="M39.9257 58.7743L36.5479 59.3652L33.4073 57.9717L29.9891 57.7249L27.2685 55.609L24.0068 54.539L21.8651 51.8237L18.9509 49.9938L17.5111 46.8378L15.1128 44.353L14.4598 40.9374L12.7178 37.9428L12.8887 34.4692L11.9033 31.1382L12.8878 27.8072L12.7178 24.3335L14.4598 21.3381L15.1128 17.9242L17.5111 15.4394L18.9501 12.2826L21.8651 10.4518L24.0068 7.73647L27.2685 6.6674L29.9891 4.55146L33.4073 4.30468L36.5479 2.91113L39.9257 3.50202L43.3035 2.91113L46.4441 4.30468L49.8623 4.55146L52.5829 6.6674L55.8446 7.73732L57.9863 10.4527L60.9005 12.2826L62.3403 15.4386L64.7386 17.9234L65.3916 21.3389L67.1335 24.3335L66.9627 27.8072L67.9481 31.1382L66.9636 34.4692L67.1335 37.9428L65.3916 40.9383L64.7386 44.3521L62.3403 46.8369L60.9013 49.9938L57.9863 51.8245L55.8446 54.5399L52.5829 55.609L49.8623 57.7249L46.4441 57.9717L43.3035 59.3652L39.9257 58.7743Z" stroke="black" stroke-width="0.5"/>
</svg>
