<svg width="16" height="16" viewBox="0 0 16 16" fill="none" xmlns="http://www.w3.org/2000/svg">
<g clip-path="url(#clip0_130_5691)">
<path d="M8 0C5.87857 0.000997614 3.84432 0.844173 2.34425 2.34425C0.844173 3.84432 0.000997614 5.87857 0 8C0 12.416 3.584 16 8 16C12.416 16 16 12.416 16 8C16 3.584 12.416 0 8 0ZM8 0.382118C12.2118 0.382118 15.6235 3.78824 15.6235 8C15.6235 12.2118 12.2118 15.6235 8 15.6235C6.99879 15.6238 6.00735 15.4268 5.08231 15.0437C4.15727 14.6607 3.31676 14.0992 2.6088 13.3912C1.90084 12.6832 1.3393 11.8427 0.956274 10.9177C0.573243 9.99265 0.376223 9.00121 0.376471 8C0.376347 6.9991 0.573491 6.00798 0.956635 5.08331C1.33978 4.15864 1.90141 3.31855 2.60942 2.61107C3.31743 1.90359 4.15793 1.34258 5.08288 0.960121C6.00783 0.577662 6.9991 0.381252 8 0.382118ZM11.1059 5.82588C11.084 5.83172 11.0633 5.84127 11.0447 5.85412L7.97741 7.72424L7.95482 7.73553C7.95092 7.73713 7.94715 7.73902 7.94353 7.74118L7.93788 7.74682L7.93224 7.75247L7.92659 7.75812L7.91624 7.76941L7.91059 7.77412L7.90494 7.77977L7.89929 7.79106L7.89365 7.79671L7.888 7.80235V7.81365L7.88235 7.81929L7.87671 7.83059L7.87106 7.84188V7.85788L7.86541 7.86353V7.89741V13.5219C7.86541 13.5718 7.88524 13.6197 7.92054 13.655C7.95585 13.6903 8.00372 13.7101 8.05365 13.7101C8.10357 13.7101 8.15145 13.6903 8.18675 13.655C8.22205 13.6197 8.24188 13.5718 8.24188 13.5219V8.00282L11.2414 6.17129C11.2816 6.14946 11.3124 6.11374 11.3282 6.07082C11.344 6.0279 11.3436 5.9807 11.3271 5.93805C11.3106 5.8954 11.2792 5.86021 11.2386 5.83905C11.1981 5.81788 11.1512 5.8122 11.1068 5.82306V5.82494L11.1059 5.82588Z" fill="black"/>
</g>
<defs>
<clipPath id="clip0_130_5691">
<rect width="16" height="16" fill="white"/>
</clipPath>
</defs>
</svg>
